<?xml version="1.0" encoding="UTF-8"?>
<svg id="Layer_1" data-name="Layer 1" xmlns="http://www.w3.org/2000/svg" viewBox="0 0 1080 1080">
  <defs>
    <style>
      .cls-1 {
        fill: #fff;
      }
    </style>
  </defs>
  <g>
    <g>
      <path class="cls-1" d="m613.64,515.14h-147.41l-.69-1.37-58.16-61.51,17.37-36.9,30.81-33.96h169.13l31.38,34.76,16.8,36.11-59.24,62.88Zm-144.1-6.58h141.29l54.3-57.58-14.73-31.59-28.58-31.42h-163.28l-28.57,31.42-14.73,31.59,54.3,57.58Z"/>
      <path class="cls-1" d="m411.08,455.83l-28.4-25.6c-4.09-3.69-9.58-5.35-15.06-4.55l-118.77,16.82c-4.17.6-8.27-1.19-10.68-4.66-2.45-3.52-2.68-8.03-.6-11.75l13.77-24.71.42-.29,55.3-32.31h.74l86.1-3.44,29.6,16.05h36.24v6.58h-37.96l-29.5-16-83.46,3.35-52.97,30.98-12.59,22.97c-.87,1.6-.78,3.3.25,4.67,1.06,1.52,2.71,2.22,4.54,2l118.7-16.81c7.34-1.01,14.76,1.26,20.37,6.23l28.62,25.8-4.65,4.65Z"/>
      <path class="cls-1" d="m372.72,373.07l-4.26-10.43c-2.19-5.32-7.35-8.76-13.16-8.76h-4.54v-6.58h4.54c8.4,0,15.95,5.07,19.22,12.93l4.4,10.78-6.2,2.06Z"/>
      <path class="cls-1" d="m428.32,421.83l-36.88-18.93c-5.85-3.03-12.43-4.08-19.01-3.03l-107.28,16.93c-3.88.6-7.72-.52-10.54-3.05-2.86-2.43-4.54-6.01-4.54-9.75v-.6l.25-.77,36.59-79.44c3.12-6.74,8.6-11.95,15.44-14.68l15-6.02c6.27-2.56,13.39-2.23,19.53.9,6.04,3.08,10.56,8.81,12.09,15.32l13.17,53.53-6.48,1.3-13.12-53.33c-1.18-4.81-4.35-8.84-8.71-11.07-4.37-2.23-9.47-2.45-13.97-.59l-15.03,6.03c-5.26,2.12-9.51,6.16-11.96,11.36l-36.2,78.71c.14,1.63.92,3.13,2.18,4.18,1.49,1.25,3.34,1.76,5.2,1.45l107.3-16.94c8.03-1.24,16,.04,23.04,3.68l36.6,18.79-2.67,6.01Z"/>
      <rect class="cls-1" x="299.76" y="311.5" width="6.58" height="63.75" transform="translate(-53.79 56.3) rotate(-9.75)"/>
      <path class="cls-1" d="m821.8,778c-6.08,0-11.84-.5-17.63-1.52l-19.08-3.29c-13.05-2.23-26.36-5.75-39.55-10.46l-35.82-13.08c-14.34-5.18-30.77-8.36-36.23-8.36h-255.24c-16.39,0-32.4,2.81-47.59,8.36l-35.8,12.96c-12.97,4.67-26.28,8.19-39.56,10.46l-19.09,3.3c-32.69,5.72-64.76-4.59-87.98-28.28-23.27-23.62-33.06-55.85-26.87-88.44l11.59-61.02,37.66-137.04c6.03-21.8,17.49-41.96,33.16-58.32l14.42-15.08,4.65,4.65-14.34,14.99c-14.96,15.63-25.86,34.84-31.5,55.54l-37.73,136.95-11.54,60.81c-5.73,30.42,3.44,60.53,25.17,82.59,21.73,22.06,51.72,31.69,82.26,26.39l19.09-3.3c12.79-2.21,25.71-5.64,38.41-10.22l35.79-12.95c16.12-5.84,32.87-8.8,49.79-8.8h255.24c6.02,0,22.73,3.06,38.44,8.8l35.79,12.95c12.69,4.57,25.62,8.01,38.41,10.22l19.09,3.3c30.54,5.3,60.51-4.31,82.26-26.39,21.73-22.06,30.91-52.17,25.17-82.59l-11.59-61.02-37.57-136.5c-5.65-20.71-16.54-39.91-31.51-55.55l-14.34-14.99,4.65-4.65,14.42,15.08c15.67,16.36,27.13,36.53,33.16,58.32l37.62,136.83,11.64,61.35c6.19,32.59-3.61,64.83-26.88,88.45-19.07,19.07-44.09,29.56-70.46,29.56Z"/>
      <g>
        <path class="cls-1" d="m439.73,724.93c-36.02,0-65.34-29.32-65.34-65.34s29.32-65.34,65.34-65.34,65.34,29.32,65.34,65.34-29.32,65.34-65.34,65.34Zm0-129.55c-35.46,0-64.21,28.75-64.21,64.21s28.75,64.21,64.21,64.21,64.21-28.75,64.21-64.21-28.75-64.21-64.21-64.21Z"/>
        <path class="cls-1" d="m439.73,725.93c-36.58,0-66.34-29.76-66.34-66.34s29.76-66.34,66.34-66.34,66.34,29.76,66.34,66.34-29.76,66.34-66.34,66.34Zm0-129.55c-34.85,0-63.21,28.36-63.21,63.21s28.35,63.21,63.21,63.21,63.21-28.36,63.21-63.21-28.35-63.21-63.21-63.21Z"/>
      </g>
      <g>
        <path class="cls-1" d="m603.95,575.49c-9.66,0-17.61-7.96-17.61-17.61s7.96-17.61,17.61-17.61,17.61,7.96,17.61,17.61-7.84,17.61-17.61,17.61Zm0-34.09c-9.09,0-16.48,7.39-16.48,16.48s7.39,16.48,16.48,16.48,16.48-7.39,16.48-16.48-7.39-16.48-16.48-16.48Z"/>
        <path class="cls-1" d="m603.95,576.49c-10.26,0-18.61-8.35-18.61-18.62s8.35-18.61,18.61-18.61,18.62,8.35,18.62,18.61-8.35,18.62-18.62,18.62Zm0-34.09c-8.53,0-15.48,6.94-15.48,15.48s6.94,15.48,15.48,15.48,15.48-6.94,15.48-15.48-6.94-15.48-15.48-15.48Z"/>
      </g>
      <g>
        <path class="cls-1" d="m483.49,575.49c-9.66,0-17.61-7.96-17.61-17.61s7.96-17.61,17.61-17.61,17.61,7.96,17.61,17.61-7.84,17.61-17.61,17.61Zm0-34.09c-9.09,0-16.48,7.39-16.48,16.48s7.39,16.48,16.48,16.48,16.48-7.39,16.48-16.48-7.39-16.48-16.48-16.48Z"/>
        <path class="cls-1" d="m483.48,576.49c-10.26,0-18.61-8.35-18.61-18.62s8.35-18.61,18.61-18.61,18.61,8.35,18.61,18.61-8.35,18.62-18.61,18.62Zm0-34.09c-8.53,0-15.48,6.94-15.48,15.48s6.94,15.48,15.48,15.48,15.48-6.94,15.48-15.48-6.94-15.48-15.48-15.48Z"/>
      </g>
      <g>
        <path class="cls-1" d="m699.41,584.58c-15.34,0-27.84-12.5-27.84-27.84s12.5-27.84,27.84-27.84,27.84,12.5,27.84,27.84-12.5,27.84-27.84,27.84Zm0-54.55c-14.77,0-26.71,11.93-26.71,26.71s11.93,26.71,26.71,26.71,26.71-11.93,26.71-26.71-11.93-26.71-26.71-26.71Z"/>
        <path class="cls-1" d="m699.41,585.58c-15.9,0-28.84-12.94-28.84-28.84s12.94-28.84,28.84-28.84,28.84,12.94,28.84,28.84-12.94,28.84-28.84,28.84Zm0-54.55c-14.17,0-25.71,11.53-25.71,25.71s11.53,25.71,25.71,25.71,25.71-11.53,25.71-25.71-11.53-25.71-25.71-25.71Z"/>
      </g>
      <g>
        <path class="cls-1" d="m814.19,584.58c-15.34,0-27.84-12.5-27.84-27.84s12.5-27.84,27.84-27.84,27.84,12.5,27.84,27.84-12.5,27.84-27.84,27.84Zm0-54.55c-14.77,0-26.71,11.93-26.71,26.71s11.93,26.71,26.71,26.71,26.71-11.93,26.71-26.71-11.93-26.71-26.71-26.71Z"/>
        <path class="cls-1" d="m814.19,585.58c-15.9,0-28.84-12.94-28.84-28.84s12.94-28.84,28.84-28.84,28.84,12.94,28.84,28.84-12.94,28.84-28.84,28.84Zm0-54.55c-14.17,0-25.71,11.53-25.71,25.71s11.53,25.71,25.71,25.71,25.71-11.53,25.71-25.71-11.53-25.71-25.71-25.71Z"/>
      </g>
      <g>
        <path class="cls-1" d="m753.96,630.04c-15.34,0-27.84-12.5-27.84-27.84s12.5-27.84,27.84-27.84,27.84,12.5,27.84,27.84-12.5,27.84-27.84,27.84Zm0-54.55c-14.77,0-26.71,11.93-26.71,26.71s11.93,26.71,26.71,26.71,26.71-11.93,26.71-26.71-11.93-26.71-26.71-26.71Z"/>
        <path class="cls-1" d="m753.96,631.04c-15.9,0-28.84-12.94-28.84-28.84s12.94-28.84,28.84-28.84,28.84,12.94,28.84,28.84-12.94,28.84-28.84,28.84Zm0-54.55c-14.17,0-25.71,11.53-25.71,25.71s11.53,25.71,25.71,25.71,25.71-11.53,25.71-25.71-11.53-25.71-25.71-25.71Z"/>
      </g>
      <g>
        <path class="cls-1" d="m753.96,531.17c-15.34,0-27.84-12.5-27.84-27.84s12.5-27.84,27.84-27.84,27.84,12.5,27.84,27.84-12.5,27.84-27.84,27.84Zm0-54.55c-14.77,0-26.71,11.93-26.71,26.71s11.93,26.71,26.71,26.71,26.71-11.93,26.71-26.71-11.93-26.71-26.71-26.71Z"/>
        <path class="cls-1" d="m753.96,532.17c-15.9,0-28.84-12.94-28.84-28.84s12.94-28.84,28.84-28.84,28.84,12.94,28.84,28.84-12.94,28.84-28.84,28.84Zm0-54.55c-14.17,0-25.71,11.53-25.71,25.71s11.53,25.71,25.71,25.71,25.71-11.53,25.71-25.71-11.53-25.71-25.71-25.71Z"/>
      </g>
      <path class="cls-1" d="m669.31,455.83l-4.66-4.65,28.61-25.78c5.62-4.98,13.04-7.26,20.38-6.24l118.77,16.82c1.72.22,3.44-.52,4.44-1.94.99-1.41,1.08-3.17.25-4.84l-12.54-22.88-53.09-30.99-83.47-3.35-29.49,16h-37.96v-6.58h36.24l29.55-16.02h.69l86.64,3.46.61.62,55.01,32.13,13.43,24.53c2,3.85,1.76,8.33-.61,11.73-2.42,3.47-6.5,5.27-10.69,4.66l-118.75-16.82c-5.38-.79-10.9.88-15.09,4.57l-28.26,25.58Z"/>
      <path class="cls-1" d="m420.3,454.69c-.42,0-.84-.1-1.22-.29l-1.14-.57c-1.32-.66-1.87-2.25-1.25-3.59l14.55-31.02c.45-.96,1.41-1.57,2.46-1.57h212.63c1.5,0,2.72,1.22,2.72,2.72v1.14c0,1.5-1.22,2.72-2.72,2.72h-210.2l-13.36,28.88c-.31.67-.88,1.18-1.57,1.43-.29.1-.6.15-.9.15Z"/>
      <path class="cls-1" d="m707.58,373.32l-6.01-2.68,4.29-10.51c3.28-7.87,10.82-12.94,19.23-12.94h4.54v6.58h-4.54c-5.81,0-10.98,3.44-13.16,8.77l-4.34,10.78Z"/>
      <path class="cls-1" d="m652.28,421.72l-3.21-5.79,36.82-18.9c7.03-3.64,14.99-4.92,23.02-3.68l107.29,16.93c1.82.32,3.75-.23,5.22-1.45,1.26-1.05,2.04-2.55,2.18-4.18l-36.32-78.73c-2.46-5.23-6.71-9.26-11.94-11.34l-15.01-6.03c-4.52-1.87-9.73-1.65-13.98.57-4.38,2.24-7.55,6.27-8.73,11.08l-13.12,53.33-6.48-1.3,13.18-53.56c1.66-6.65,6.07-12.23,12.09-15.3,6.13-3.13,13.25-3.46,19.54-.89l14.99,6.02c6.76,2.71,12.24,7.91,15.42,14.66l36.97,80.11v.6c0,3.86-1.68,7.43-4.6,9.92-2.87,2.44-6.78,3.57-10.47,3l-107.18-16.93c-6.59-1.04-13-.03-19.02,3.03l-36.66,18.81Z"/>
      <rect class="cls-1" x="745.56" y="340.04" width="63.75" height="6.58" transform="translate(307.15 1051.22) rotate(-80.23)"/>
      <g>
        <path class="cls-1" d="m342.68,622.2l4.55-2.39c10-5.34,17.84-14.21,22.05-24.77l.11-.23c9.43-10,14.66-23.18,14.66-36.93,0-29.77-24.21-53.98-53.98-53.98s-53.98,24.21-53.98,53.98c0,3.18.34,6.48.91,9.77v.23c-.57,3.07-.91,6.25-.91,9.32,0,8.18,2.05,16.25,6.02,23.41l2.5,4.55-3.41-3.86c-10.68-11.93-16.48-27.39-16.48-43.41,0-36.02,29.32-65.34,65.34-65.34s65.34,29.32,65.34,65.34c0,29.21-19.66,55.12-47.73,62.96l-5,1.36Zm27.62-26.59c-3.75,9.21-10.11,17.16-18.41,22.73,25.12-9.09,42.39-33.3,42.39-60.34,0-35.46-28.75-64.21-64.21-64.21s-64.21,28.75-64.21,64.21c0,14.09,4.66,27.73,13.18,38.87-2.61-6.14-4.09-12.84-4.09-19.55,0-3.18.34-6.25.91-9.43-.57-3.3-.91-6.7-.91-9.89,0-30.34,24.77-55.12,55.12-55.12s55.12,24.77,55.12,55.12c0,13.98-5.23,27.39-14.89,37.62Z"/>
        <path class="cls-1" d="m334.09,625.58l12.67-6.65c9.77-5.22,17.43-13.83,21.58-24.26l.31-.54c9.28-9.84,14.39-22.71,14.39-36.25,0-29.21-23.77-52.98-52.98-52.98s-52.98,23.77-52.98,52.98c0,2.93.3,6.16.89,9.6v.49s0,.09,0,.09c-.59,3.2-.89,6.27-.89,9.14,0,8.05,2.04,15.98,5.9,22.92l6.86,12.47-9.39-10.64c-10.79-12.05-16.73-27.7-16.73-44.07,0-36.58,29.76-66.34,66.34-66.34s66.34,29.76,66.34,66.34c0,29.67-19.93,55.95-48.46,63.92l-13.86,3.78Zm37.06-29.42c-2.89,7.02-7.2,13.22-12.66,18.24,21.08-10.64,34.78-32.45,34.78-56.41,0-34.85-28.35-63.21-63.21-63.21s-63.21,28.35-63.21,63.21c0,11.24,3.08,22.37,8.78,32.03-1.11-4.21-1.69-8.52-1.69-12.71,0-2.97.28-5.98.89-9.43-.58-3.45-.89-6.86-.89-9.88,0-30.94,25.17-56.12,56.12-56.12s56.12,25.17,56.12,56.12c0,14.29-5.34,27.83-15.03,38.17Z"/>
      </g>
      <g>
        <path class="cls-1" d="m368.14,597.88l1.14-2.73c2.27-5.68,3.41-11.71,3.41-17.84,0-26.59-21.71-48.3-48.3-48.3-23.07,0-42.96,16.36-47.39,38.98l-.57,2.95-.57-2.95c-.57-3.41-.91-6.7-.91-10,0-30.34,24.77-55.12,55.12-55.12s55.12,24.77,55.12,55.12c0,14.09-5.34,27.5-15,37.73l-2.05,2.16Zm-43.75-70.12c27.27,0,49.43,22.16,49.43,49.43,0,5.34-.8,10.46-2.5,15.46,8.18-9.77,12.73-21.93,12.73-34.77,0-29.77-24.21-53.98-53.98-53.98s-53.98,24.21-53.98,53.98c0,2.27.11,4.55.45,6.82,5.57-21.48,25.23-36.93,47.84-36.93Z"/>
        <path class="cls-1" d="m365.12,602.52l3.23-7.75c2.21-5.52,3.33-11.4,3.33-17.46,0-26.08-21.22-47.3-47.3-47.3-22.56,0-42.07,16.05-46.41,38.17l-1.55,8.06-1.55-8.06c-.63-3.75-.93-7.08-.93-10.19,0-30.94,25.17-56.12,56.12-56.12s56.12,25.17,56.12,56.12c0,14.34-5.42,27.99-15.27,38.42l-5.79,6.12Zm-40.73-75.76c27.81,0,50.43,22.62,50.43,50.43,0,3.72-.37,7.26-1.13,10.7,6.14-8.89,9.36-19.17,9.36-30.01,0-29.21-23.77-52.98-52.98-52.98s-52.98,23.77-52.98,52.98c0,.58,0,1.13.02,1.68,7.25-19.54,26.02-32.79,47.28-32.79Z"/>
      </g>
      <g>
        <path class="cls-1" d="m447.69,711.3h-15.91c-4.89,0-8.86-3.64-8.86-8.18v-28.07h-30.57c-4.89,0-8.86-3.64-8.86-8.18v-14.55c0-4.55,3.98-8.18,8.86-8.18h30.57v-28.07c0-4.55,3.98-8.18,8.86-8.18h15.91c4.89,0,8.86,3.64,8.86,8.18v28.07h30.57c4.89,0,8.86,3.64,8.86,8.18v14.55c0,4.55-3.98,8.18-8.86,8.18h-30.57v28.07c0,4.55-3.98,8.18-8.86,8.18Zm-55.34-66.03c-4.2,0-7.73,3.18-7.73,7.05v14.55c0,3.86,3.41,7.05,7.73,7.05h31.71v29.21c0,3.86,3.41,7.05,7.73,7.05h15.91c4.2,0,7.73-3.18,7.73-7.05v-29.21h31.71c4.2,0,7.73-3.18,7.73-7.05v-14.55c0-3.86-3.41-7.05-7.73-7.05h-31.71v-29.21c0-3.86-3.41-7.05-7.73-7.05h-15.91c-4.2,0-7.73,3.18-7.73,7.05v29.21h-31.71Z"/>
        <path class="cls-1" d="m447.69,712.3h-15.91c-5.44,0-9.86-4.12-9.86-9.18v-27.07h-29.57c-5.44,0-9.86-4.12-9.86-9.18v-14.55c0-5.06,4.43-9.18,9.86-9.18h29.57v-27.07c0-5.06,4.43-9.18,9.86-9.18h15.91c5.44,0,9.86,4.12,9.86,9.18v27.07h29.57c5.44,0,9.86,4.12,9.86,9.18v14.55c0,5.06-4.43,9.18-9.86,9.18h-29.57v27.07c0,5.06-4.43,9.18-9.86,9.18Zm-55.34-66.03c-3.65,0-6.73,2.77-6.73,6.05v14.55c0,3.33,3.02,6.04,6.73,6.04h32.71v30.21c0,3.33,3.02,6.05,6.73,6.05h15.91c3.65,0,6.73-2.77,6.73-6.05v-30.21h32.71c3.65,0,6.73-2.77,6.73-6.04v-14.55c0-3.33-3.02-6.05-6.73-6.05h-32.71v-30.21c0-3.33-3.02-6.05-6.73-6.05h-15.91c-3.65,0-6.73,2.77-6.73,6.05v30.21h-32.71Z"/>
      </g>
      <g>
        <path class="cls-1" d="m627.7,723.46l-4.89-1.36c-28.18-7.84-47.84-33.75-47.84-62.96,0-36.02,29.32-65.34,65.34-65.34s65.34,29.32,65.34,65.34c0,16.02-5.8,31.37-16.48,43.41l-3.41,3.86,2.5-4.55c3.98-7.16,6.02-15.23,6.02-23.41,0-3.18-.34-6.25-.91-9.32-4.43-22.62-24.32-38.98-47.39-38.98-26.59,0-48.3,21.71-48.3,48.3,0,6.14,1.14,12.16,3.41,17.84,4.2,10.57,12.05,19.43,22.16,24.77l4.43,2.39Zm12.61-128.64c-35.46,0-64.21,28.75-64.21,64.21,0,27.16,17.16,51.25,42.39,60.46-8.3-5.57-14.77-13.52-18.41-22.84-2.27-5.8-3.52-11.93-3.52-18.18,0-27.27,22.16-49.43,49.43-49.43,23.64,0,43.98,16.82,48.53,39.89.57,3.07.91,6.25.91,9.55,0,6.7-1.36,13.41-3.98,19.55,8.52-11.14,13.07-24.77,13.07-38.87,0-35.46-28.75-64.32-64.21-64.32Z"/>
        <path class="cls-1" d="m636.07,726.83l-13.53-3.78c-28.6-7.96-48.58-34.24-48.58-63.92,0-36.58,29.76-66.34,66.34-66.34s66.34,29.76,66.34,66.34c0,16.26-5.94,31.91-16.73,44.08l-9.4,10.65,6.86-12.47c3.86-6.95,5.9-14.88,5.9-22.93,0-2.91-.29-5.89-.89-9.14-4.33-22.11-23.85-38.16-46.41-38.16-26.08,0-47.3,21.22-47.3,47.3,0,6.05,1.12,11.93,3.34,17.47,4.16,10.45,11.86,19.07,21.7,24.26l12.34,6.65Zm4.24-131.02c-34.85,0-63.21,28.36-63.21,63.21,0,23.92,13.67,45.74,34.69,56.45-5.57-5.12-9.88-11.4-12.64-18.47-2.38-6.08-3.59-12.32-3.59-18.55,0-27.81,22.62-50.43,50.44-50.43,24.04,0,44.86,17.12,49.51,40.7.62,3.38.93,6.56.93,9.74,0,4.29-.56,8.62-1.63,12.79,5.66-9.62,8.72-20.78,8.72-32.11,0-34.92-28.36-63.32-63.21-63.32Z"/>
      </g>
      <g>
        <path class="cls-1" d="m602.24,699.02l-2.05-2.16c-9.66-10.23-15-23.64-15-37.73,0-30.34,24.77-55.12,55.12-55.12s55.12,24.77,55.12,55.12c0,3.41-.34,6.7-.91,10l-.57,2.95-.57-2.95c-4.43-22.62-24.32-38.98-47.39-38.98-26.59,0-48.3,21.71-48.3,48.3,0,6.14,1.14,12.16,3.41,17.84l1.14,2.73Zm38.07-93.98c-29.77,0-53.98,24.21-53.98,53.98,0,12.84,4.43,25,12.73,34.77-1.59-5-2.5-10.11-2.5-15.46,0-27.27,22.16-49.43,49.43-49.43,22.62,0,42.28,15.34,47.84,37.05.34-2.27.45-4.55.45-6.93,0-29.66-24.21-53.98-53.98-53.98Z"/>
        <path class="cls-1" d="m605.26,703.66l-5.79-6.11c-9.85-10.43-15.28-24.07-15.28-38.42,0-30.94,25.17-56.12,56.12-56.12s56.12,25.17,56.12,56.12c0,3.24-.3,6.57-.92,10.17l-1.55,8.08-1.55-8.06c-4.33-22.11-23.85-38.17-46.41-38.17-26.08,0-47.3,21.22-47.3,47.3,0,6.06,1.12,11.93,3.34,17.47l3.22,7.74Zm35.05-97.62c-29.21,0-52.98,23.77-52.98,52.98,0,11.02,3.25,21.36,9.45,30.19-.82-3.66-1.22-7.25-1.22-10.87,0-27.81,22.62-50.43,50.44-50.43,21.29,0,40.05,13.28,47.27,32.87.02-.56.02-1.14.02-1.75,0-29.21-23.77-52.98-52.98-52.98Z"/>
      </g>
      <path class="cls-1" d="m646,728.68c-8.21,0-16.41-2.06-23.71-5.96-10.44-5.63-18.6-14.8-23.01-25.81-2.33-6-3.51-12.25-3.51-18.57,0-13.42,5.25-26.04,14.78-35.53,9.45-9.41,21.95-14.58,35.24-14.58h.22c23.93,0,44.66,17.05,49.29,40.53v.02c.62,3.33.94,6.59.94,9.68,0,8.37-2.18,16.77-6.3,24.29-8.85,16-25.68,25.94-43.92,25.94Zm-.2-97.73c-12.56,0-24.38,4.89-33.32,13.79-9.01,8.98-13.98,20.91-13.98,33.6,0,5.99,1.12,11.9,3.32,17.58,4.16,10.41,11.9,19.09,21.77,24.41,6.91,3.69,14.66,5.63,22.42,5.63,17.25,0,33.17-9.4,41.54-24.53,3.9-7.12,5.97-15.07,5.97-22.98,0-2.92-.3-6.01-.89-9.18-4.38-22.21-23.98-38.33-46.62-38.33h-.2Zm.2,85.69c-5.11,0-10.18-1.03-15.07-3.06-14.12-6.12-23.23-19.95-23.23-35.24,0-21.12,17.18-38.3,38.3-38.3s38.29,17.18,38.29,38.3c0,7.59-2.24,14.96-6.48,21.32-7.21,10.63-19.1,16.97-31.82,16.97Zm0-73.87c-19.61,0-35.57,15.96-35.57,35.57,0,14.2,8.47,27.05,21.57,32.73,4.54,1.88,9.26,2.84,14,2.84,11.82,0,22.87-5.89,29.56-15.76,3.93-5.9,6.01-12.75,6.01-19.81,0-19.61-15.96-35.57-35.57-35.57Z"/>
      <g>
        <g>
          <rect class="cls-1" x="596.45" y="550.9" width="15" height="1.14"/>
          <rect class="cls-1" x="595.45" y="549.9" width="17" height="3.14"/>
        </g>
        <g>
          <rect class="cls-1" x="596.45" y="557.31" width="15" height="1.14"/>
          <rect class="cls-1" x="595.45" y="556.31" width="17" height="3.14"/>
        </g>
        <g>
          <rect class="cls-1" x="596.45" y="563.72" width="15" height="1.14"/>
          <rect class="cls-1" x="595.45" y="562.72" width="17" height="3.14"/>
        </g>
      </g>
      <g>
        <g>
          <path class="cls-1" d="m481.21,560.15h-6.82v-9.09h12.5v5.68h-5.68v3.41Zm-5.68-1.14h4.55v-3.41h5.68v-3.41h-10.23v6.82Z"/>
          <path class="cls-1" d="m482.21,561.15h-8.82v-11.09h14.5v7.68h-5.68v3.41Zm-5.68-3.14h2.55v-3.41h5.68v-1.41h-8.23v4.82Z"/>
        </g>
        <g>
          <path class="cls-1" d="m492.58,564.7h-12.5v-9.09h12.5v9.09Zm-11.36-1.14h10.23v-6.82h-10.23v6.82Z"/>
          <path class="cls-1" d="m493.58,565.7h-14.5v-11.09h14.5v11.09Zm-11.36-3.14h8.23v-4.82h-8.23v4.82Z"/>
        </g>
      </g>
    </g>
    <path class="cls-1" d="m323.38,627.47c-8.21,0-16.4-2.06-23.71-5.96-10.43-5.63-18.6-14.79-23.01-25.81-2.33-6.01-3.51-12.25-3.51-18.58,0-13.42,5.25-26.04,14.78-35.53,9.5-9.46,22.05-14.77,35.45-14.59,23.93,0,44.66,17.05,49.29,40.53v.02c.62,3.34.93,6.6.93,9.68,0,8.37-2.18,16.77-6.3,24.29-8.85,16-25.68,25.94-43.92,25.94Zm-.2-97.73c-12.56,0-24.39,4.89-33.32,13.79-9.01,8.98-13.98,20.91-13.98,33.6,0,5.99,1.12,11.9,3.32,17.58,4.17,10.42,11.9,19.09,21.76,24.41,6.91,3.69,14.66,5.63,22.42,5.63,17.26,0,33.17-9.4,41.54-24.53,3.9-7.12,5.97-15.07,5.97-22.98,0-2.91-.3-6-.89-9.18-4.38-22.21-23.98-38.33-46.62-38.33h-.2Zm.2,85.69c-5.11,0-10.18-1.03-15.07-3.06-14.12-6.12-23.23-19.94-23.23-35.24,0-21.12,17.18-38.3,38.3-38.3s38.3,17.18,38.3,38.3c0,7.59-2.24,14.97-6.48,21.32-7.2,10.63-19.1,16.97-31.82,16.97Zm0-73.87c-19.61,0-35.57,15.96-35.57,35.57,0,14.21,8.47,27.05,21.57,32.73,4.54,1.88,9.26,2.84,14,2.84,11.82,0,22.87-5.89,29.56-15.76,3.93-5.9,6.02-12.75,6.02-19.81,0-19.61-15.96-35.57-35.57-35.57Z"/>
  </g>
  <path class="cls-1" d="m749.57,586.76c.7-.08,1.36-.15,1.97-.2.61-.05,1.22-.08,1.85-.08.51,0,1.08.03,1.68.08.61.05,1.3.12,2.09.2l8.97,29.02c-1.54.24-2.9.37-4.06.37-.54,0-1.08-.03-1.62-.08-.54-.05-1.12-.14-1.75-.24l-1.54-5.64c-.76.22-1.48.38-2.17.49-.69.11-1.37.16-2.05.16-.62,0-1.26-.05-1.91-.14s-1.33-.24-2.03-.43l-1.5,5.56c-.62.11-1.19.19-1.7.24-.51.05-1.01.08-1.5.08s-1.05-.03-1.68-.1c-.64-.07-1.35-.17-2.13-.3l9.09-28.98Zm3.61,7.63l-2.72,10.43c.46.14.89.24,1.3.32.41.08.83.12,1.26.12.46,0,.91-.03,1.36-.1s.91-.17,1.4-.3l-2.6-10.47Z"/>
  <path class="cls-1" d="m692.86,557.6l-4.79-13.92c.7-.13,1.39-.22,2.05-.26s1.35-.06,2.05-.06c.46,0,1.06.03,1.79.1s1.31.14,1.75.22l3.86,14.08,3.94-14.08c.43-.11,1.01-.19,1.75-.24.73-.05,1.33-.08,1.79-.08.7,0,1.38.02,2.03.06s1.33.13,2.03.26l-4.75,13.92,5.84,15.06c-1.38.24-2.75.37-4.1.37-.46,0-1.06-.03-1.79-.1s-1.31-.16-1.75-.26l-4.99-14.49-4.95,14.49c-.43.11-1.01.2-1.75.26s-1.33.1-1.79.1c-1.35,0-2.72-.12-4.1-.37l5.88-15.06Z"/>
  <path class="cls-1" d="m749.69,508.11c-.7-1.46-1.44-2.98-2.21-4.57-.77-1.58-1.54-3.17-2.31-4.75-.77-1.58-1.54-3.17-2.29-4.75-.76-1.58-1.49-3.1-2.19-4.57.46-.08,1.08-.16,1.87-.22.78-.07,1.53-.1,2.23-.1.57,0,1.2.03,1.89.1.69.07,1.29.14,1.81.22l4.99,11.28,4.79-11.28c.62-.11,1.27-.19,1.95-.24.68-.05,1.37-.08,2.07-.08.46,0,1.05.03,1.79.1.73.07,1.35.14,1.87.22l-9.05,18.63v10.35c-1.43.24-2.62.37-3.57.37-1,0-2.21-.12-3.61-.37v-10.35Z"/>
  <path class="cls-1" d="m805.43,543.68c1.03-.16,2.15-.3,3.37-.41,1.22-.11,2.64-.16,4.26-.16s2.98.13,4.32.39c1.34.26,2.51.69,3.51,1.3s1.79,1.42,2.37,2.43.87,2.29.87,3.84c0,1.27-.28,2.43-.85,3.47-.57,1.04-1.29,1.85-2.15,2.41.62.24,1.22.56,1.81.95.58.39,1.1.88,1.54,1.46.45.58.8,1.28,1.08,2.09.27.81.41,1.75.41,2.8,0,1.79-.33,3.26-.97,4.42s-1.54,2.08-2.68,2.76c-1.14.68-2.49,1.15-4.06,1.42-1.57.27-3.27.41-5.11.41-1.46,0-2.77-.05-3.94-.16s-2.42-.24-3.77-.41v-29.02Zm8.16,11.08c1.16,0,2.07-.24,2.72-.71.65-.47.97-1.29.97-2.46,0-.57-.12-1.04-.34-1.42-.23-.38-.52-.68-.87-.89-.35-.22-.75-.37-1.18-.45s-.85-.12-1.26-.12h-.59c-.23,0-.43.01-.59.04v6.01h1.14Zm-1.14,12.58c.19.03.43.05.71.06s.66.02,1.12.02c.51,0,1.04-.05,1.56-.16.53-.11,1.01-.29,1.44-.55.43-.26.78-.61,1.04-1.05.26-.45.39-1.01.39-1.68,0-1.3-.43-2.2-1.28-2.7-.85-.5-1.96-.75-3.31-.75h-1.66v6.82Z"/>
  <circle class="cls-1" cx="323" cy="577" r="48"/>
</svg>